<svg xmlns:xlink="http://www.w3.org/1999/xlink" xmlns="http://www.w3.org/2000/svg" fill="none" viewBox="0 0 53 49" class="w-10" width="53"  height="49" ><path fill="#02D1AE" d="M25.5 1.38A6.89 6.89 0 0 0 19.35.3L4.957 4.616A6.914 6.914 0 0 0 0 11.28v30.76a6.89 6.89 0 0 0 2.804 5.578 6.9 6.9 0 0 0 6.15 1.082l10.743-3.224a11.8 11.8 0 0 1-.506-3.437V28.07a11.7 11.7 0 0 1 3.017-7.883 11.8 11.8 0 0 1 5.357-3.375l.738-.211V6.962A6.9 6.9 0 0 0 25.5 1.381"></path><path fill="#02D1AE" d="M52.289 23.752v13.97a6.91 6.91 0 0 1-4.958 6.66L32.939 48.7a6.89 6.89 0 0 1-6.15-1.082 7 7 0 0 1-1.441-1.439 6.8 6.8 0 0 1-1.075-2.144q-.003 0-.007.002l.005-.005a7.1 7.1 0 0 1-.286-1.993V28.07c0-1.433.427-2.779 1.18-3.897a6.9 6.9 0 0 1 3.779-2.765l1.76-.528 12.631-3.79a6.89 6.89 0 0 1 6.15 1.082 6.9 6.9 0 0 1 2.804 5.581"></path></svg>